<svg xmlns="http://www.w3.org/2000/svg" width="1254" height="1254" viewBox="0 0 1254 1254">
  <defs>
    <clipPath id="cube"><rect x="176" y="188" width="902" height="874" rx="148"/></clipPath>
    <linearGradient id="top" x1="0" y1="0" x2="0" y2="1"><stop stop-color="#FF7678"/><stop offset="1" stop-color="#EE354B"/></linearGradient>
    <linearGradient id="orange" x1="0" y1="0" x2="0" y2="1"><stop stop-color="#FFCE62"/><stop offset="1" stop-color="#F59A28"/></linearGradient>
    <linearGradient id="yellow" x1="0" y1="0" x2="0" y2="1"><stop stop-color="#FFF687"/><stop offset="1" stop-color="#F6D744"/></linearGradient>
    <linearGradient id="green" x1="0" y1="0" x2="0" y2="1"><stop stop-color="#95E971"/><stop offset="1" stop-color="#45C66D"/></linearGradient>
    <linearGradient id="blue" x1="0" y1="0" x2="0" y2="1"><stop stop-color="#74D7FC"/><stop offset="1" stop-color="#3A97DD"/></linearGradient>
    <linearGradient id="purple" x1="0" y1="0" x2="0" y2="1"><stop stop-color="#D58AF5"/><stop offset="1" stop-color="#9B54D5"/></linearGradient>
  </defs>
  <g clip-path="url(#cube)">
    <rect x="176" y="188" width="902" height="168" fill="url(#top)"/>
    <rect x="176" y="356" width="902" height="143" fill="url(#orange)"/>
    <rect x="176" y="499" width="902" height="142" fill="url(#yellow)"/>
    <rect x="176" y="641" width="902" height="142" fill="url(#green)"/>
    <rect x="176" y="783" width="902" height="142" fill="url(#blue)"/>
    <rect x="176" y="925" width="902" height="137" fill="url(#purple)"/>
    <!-- candy-gloss upper plane -->
    <path d="M213 306c20-51 70-81 130-87l576 4c67 1 111 31 132 80-174-24-502-19-838 3Z" fill="#FFF5F5" opacity=".42"/>
    <path d="M226 264c37-37 81-47 139-51l488 6c64 1 114 18 157 55-202-18-567-11-784 12Z" fill="white" opacity=".22"/>
    <!-- stripe separators -->
    <path d="M189 356h876M184 499h886M181 641h893M178 783h899M176 925h902" stroke="#81313C" stroke-opacity=".38" stroke-width="15"/>
    <path d="M205 371h830M201 514h841M198 656h850M195 798h859M192 940h868" stroke="white" stroke-opacity=".36" stroke-width="8"/>
    <!-- shiny side facet -->
    <path d="M943 241c78 25 120 81 120 146v519c0 67-42 118-101 139l-77-12c35-43 52-91 52-151V396c0-71-1-112-35-160l41 5Z" fill="#611F93" opacity=".14"/>
    <!-- gentle lower reflection -->
    <path d="M213 965c183 39 522 47 812 0v89c-24 20-62 30-112 30H343c-60 0-104-34-130-79v-40Z" fill="#53206E" opacity=".18"/>
  </g>
  <rect x="176" y="188" width="902" height="874" rx="148" fill="none" stroke="#B92F45" stroke-width="27"/>
  <path d="M303 232c-57 9-92 55-95 115l-10 469" fill="none" stroke="#FFE6E6" stroke-width="18" stroke-linecap="round" opacity=".7"/>
  <path d="M251 930c24 54 74 91 135 95h503" fill="none" stroke="#70328E" stroke-width="14" stroke-linecap="round" opacity=".48"/>
  <!-- sparkles embedded in the skin -->
  <g fill="white" opacity=".9">
    <path d="M396 304l9 24 24 9-24 9-9 24-9-24-24-9 24-9 9-24Z"/>
    <path d="M750 287l7 18 18 7-18 7-7 18-7-18-18-7 18-7 7-18Z"/>
    <path d="M555 561l6 16 16 6-16 6-6 16-6-16-16-6 16-6 6-16Z"/>
    <circle cx="873" cy="439" r="10"/><circle cx="340" cy="731" r="9"/><circle cx="812" cy="849" r="11"/>
  </g>
</svg>
